<mxfile host="app.diagrams.net" modified="2022-02-21T10:48:17.158Z" agent="5.0 (Windows NT 10.0; Win64; x64) AppleWebKit/537.36 (KHTML, like Gecko) Chrome/98.0.4758.102 Safari/537.36 Edg/98.0.1108.56" etag="q8ZY_3z58ve_Y6MjiZVU" version="16.6.1" type="github">
  <diagram name="Page-1" id="822b0af5-4adb-64df-f703-e8dfc1f81529">
    <mxGraphModel dx="1422" dy="794" grid="1" gridSize="10" guides="1" tooltips="1" connect="1" arrows="1" fold="1" page="1" pageScale="1" pageWidth="1100" pageHeight="850" background="none" math="0" shadow="0">
      <root>
        <mxCell id="0" />
        <mxCell id="1" parent="0" />
        <mxCell id="Jtc_E76_hGR1CpZQ2M6x-4" value="" style="fontColor=#0066CC;verticalAlign=top;verticalLabelPosition=bottom;labelPosition=center;align=center;html=1;outlineConnect=0;fillColor=#CCCCCC;strokeColor=#6881B3;gradientColor=none;gradientDirection=north;strokeWidth=2;shape=mxgraph.networks.router;shadow=1;" vertex="1" parent="1">
          <mxGeometry x="480" y="240" width="100" height="30" as="geometry" />
        </mxCell>
        <mxCell id="Jtc_E76_hGR1CpZQ2M6x-5" value="" style="fontColor=#0066CC;verticalAlign=top;verticalLabelPosition=bottom;labelPosition=center;align=center;html=1;outlineConnect=0;fillColor=#CCCCCC;strokeColor=#6881B3;gradientColor=none;gradientDirection=north;strokeWidth=2;shape=mxgraph.networks.comm_link;shadow=1;" vertex="1" parent="1">
          <mxGeometry x="520" y="130" width="30" height="100" as="geometry" />
        </mxCell>
        <mxCell id="Jtc_E76_hGR1CpZQ2M6x-6" value="" style="html=1;outlineConnect=0;fillColor=#CCCCCC;strokeColor=#6881B3;gradientColor=none;gradientDirection=north;strokeWidth=2;shape=mxgraph.networks.cloud;fontColor=#ffffff;shadow=1;" vertex="1" parent="1">
          <mxGeometry x="490" y="70" width="90" height="50" as="geometry" />
        </mxCell>
        <mxCell id="Jtc_E76_hGR1CpZQ2M6x-7" value="" style="fontColor=#0066CC;verticalAlign=top;verticalLabelPosition=bottom;labelPosition=center;align=center;html=1;outlineConnect=0;fillColor=#CCCCCC;strokeColor=#6881B3;gradientColor=none;gradientDirection=north;strokeWidth=2;shape=mxgraph.networks.pc;shadow=1;" vertex="1" parent="1">
          <mxGeometry x="190" y="420" width="100" height="70" as="geometry" />
        </mxCell>
        <mxCell id="Jtc_E76_hGR1CpZQ2M6x-15" value="" style="fontColor=#0066CC;verticalAlign=top;verticalLabelPosition=bottom;labelPosition=center;align=center;html=1;outlineConnect=0;fillColor=#CCCCCC;strokeColor=#6881B3;gradientColor=none;gradientDirection=north;strokeWidth=2;shape=mxgraph.networks.wireless_hub;shadow=1;" vertex="1" parent="1">
          <mxGeometry x="280" y="185" width="100" height="85" as="geometry" />
        </mxCell>
        <mxCell id="Jtc_E76_hGR1CpZQ2M6x-19" value="" style="fontColor=#0066CC;verticalAlign=top;verticalLabelPosition=bottom;labelPosition=center;align=center;html=1;outlineConnect=0;fillColor=#CCCCCC;strokeColor=#6881B3;gradientColor=none;gradientDirection=north;strokeWidth=2;shape=mxgraph.networks.switch;shadow=1;" vertex="1" parent="1">
          <mxGeometry x="485" y="360" width="100" height="30" as="geometry" />
        </mxCell>
        <mxCell id="Jtc_E76_hGR1CpZQ2M6x-31" value="Router" style="text;html=1;strokeColor=none;fillColor=none;align=center;verticalAlign=middle;whiteSpace=wrap;rounded=0;shadow=1;" vertex="1" parent="1">
          <mxGeometry x="565" y="210" width="75" height="32.5" as="geometry" />
        </mxCell>
        <mxCell id="Jtc_E76_hGR1CpZQ2M6x-32" value="WiFi Access Point" style="text;html=1;strokeColor=none;fillColor=none;align=center;verticalAlign=middle;whiteSpace=wrap;rounded=0;shadow=1;" vertex="1" parent="1">
          <mxGeometry x="300" y="280" width="60" height="30" as="geometry" />
        </mxCell>
        <mxCell id="Jtc_E76_hGR1CpZQ2M6x-33" value="Switch GE 5 ports" style="text;html=1;strokeColor=none;fillColor=none;align=center;verticalAlign=middle;whiteSpace=wrap;rounded=0;shadow=1;" vertex="1" parent="1">
          <mxGeometry x="585" y="360" width="60" height="30" as="geometry" />
        </mxCell>
        <mxCell id="Jtc_E76_hGR1CpZQ2M6x-34" value="" style="html=1;outlineConnect=0;fillColor=#CCCCCC;strokeColor=#6881B3;gradientColor=none;gradientDirection=north;strokeWidth=2;shape=mxgraph.networks.comm_link_edge;html=1;rounded=0;comic=0;entryX=0;entryY=0.7;entryDx=0;entryDy=0;entryPerimeter=0;exitX=1;exitY=0.5;exitDx=0;exitDy=0;exitPerimeter=0;" edge="1" parent="1" source="Jtc_E76_hGR1CpZQ2M6x-49" target="Jtc_E76_hGR1CpZQ2M6x-15">
          <mxGeometry width="100" height="100" relative="1" as="geometry">
            <mxPoint x="110" y="160" as="sourcePoint" />
            <mxPoint x="250" y="185" as="targetPoint" />
          </mxGeometry>
        </mxCell>
        <mxCell id="Jtc_E76_hGR1CpZQ2M6x-35" value="" style="html=1;outlineConnect=0;fillColor=#CCCCCC;strokeColor=#6881B3;gradientColor=none;gradientDirection=north;strokeWidth=2;shape=mxgraph.networks.comm_link_edge;html=1;rounded=0;comic=0;" edge="1" parent="1" source="Jtc_E76_hGR1CpZQ2M6x-50" target="Jtc_E76_hGR1CpZQ2M6x-15">
          <mxGeometry width="100" height="100" relative="1" as="geometry">
            <mxPoint x="90" y="280" as="sourcePoint" />
            <mxPoint x="260" y="364.5" as="targetPoint" />
          </mxGeometry>
        </mxCell>
        <mxCell id="Jtc_E76_hGR1CpZQ2M6x-36" value="" style="endArrow=none;html=1;strokeWidth=2;rounded=0;comic=0;" edge="1" parent="1">
          <mxGeometry width="100" relative="1" as="geometry">
            <mxPoint x="380" y="250" as="sourcePoint" />
            <mxPoint x="480" y="250" as="targetPoint" />
          </mxGeometry>
        </mxCell>
        <mxCell id="Jtc_E76_hGR1CpZQ2M6x-37" value="" style="endArrow=none;html=1;strokeWidth=2;rounded=0;comic=0;" edge="1" parent="1" source="Jtc_E76_hGR1CpZQ2M6x-19" target="Jtc_E76_hGR1CpZQ2M6x-4">
          <mxGeometry width="100" relative="1" as="geometry">
            <mxPoint x="480" y="320" as="sourcePoint" />
            <mxPoint x="580" y="320" as="targetPoint" />
          </mxGeometry>
        </mxCell>
        <mxCell id="Jtc_E76_hGR1CpZQ2M6x-38" value="" style="endArrow=none;html=1;strokeWidth=2;rounded=0;comic=0;" edge="1" parent="1" source="Jtc_E76_hGR1CpZQ2M6x-7">
          <mxGeometry width="100" relative="1" as="geometry">
            <mxPoint x="385" y="374.5" as="sourcePoint" />
            <mxPoint x="485" y="374.5" as="targetPoint" />
          </mxGeometry>
        </mxCell>
        <mxCell id="Jtc_E76_hGR1CpZQ2M6x-39" value="" style="endArrow=none;html=1;strokeWidth=2;rounded=0;comic=0;entryX=0.5;entryY=1;entryDx=0;entryDy=0;entryPerimeter=0;" edge="1" parent="1" source="Jtc_E76_hGR1CpZQ2M6x-42" target="Jtc_E76_hGR1CpZQ2M6x-19">
          <mxGeometry width="100" relative="1" as="geometry">
            <mxPoint x="939.98" y="460" as="sourcePoint" />
            <mxPoint x="510" y="430" as="targetPoint" />
          </mxGeometry>
        </mxCell>
        <mxCell id="Jtc_E76_hGR1CpZQ2M6x-42" value="" style="fontColor=#0066CC;verticalAlign=top;verticalLabelPosition=bottom;labelPosition=center;align=center;html=1;outlineConnect=0;fillColor=#CCCCCC;strokeColor=#6881B3;gradientColor=none;gradientDirection=north;strokeWidth=2;shape=mxgraph.networks.virtual_server;shadow=1;fontSize=7;" vertex="1" parent="1">
          <mxGeometry x="480" y="560" width="110" height="120" as="geometry" />
        </mxCell>
        <mxCell id="Jtc_E76_hGR1CpZQ2M6x-48" value="" style="fontColor=#0066CC;verticalAlign=top;verticalLabelPosition=bottom;labelPosition=center;align=center;html=1;outlineConnect=0;fillColor=#CCCCCC;strokeColor=#6881B3;gradientColor=none;gradientDirection=north;strokeWidth=2;shape=mxgraph.networks.security_camera;shadow=1;fontSize=7;" vertex="1" parent="1">
          <mxGeometry x="780" y="195" width="100" height="75" as="geometry" />
        </mxCell>
        <mxCell id="Jtc_E76_hGR1CpZQ2M6x-49" value="" style="fontColor=#0066CC;verticalAlign=top;verticalLabelPosition=bottom;labelPosition=center;align=center;html=1;outlineConnect=0;fillColor=#CCCCCC;strokeColor=#6881B3;gradientColor=none;gradientDirection=north;strokeWidth=2;shape=mxgraph.networks.mobile;shadow=1;fontSize=7;" vertex="1" parent="1">
          <mxGeometry x="40" y="95" width="50" height="100" as="geometry" />
        </mxCell>
        <mxCell id="Jtc_E76_hGR1CpZQ2M6x-50" value="" style="fontColor=#0066CC;verticalAlign=top;verticalLabelPosition=bottom;labelPosition=center;align=center;html=1;outlineConnect=0;fillColor=#CCCCCC;strokeColor=#6881B3;gradientColor=none;gradientDirection=north;strokeWidth=2;shape=mxgraph.networks.mobile;shadow=1;fontSize=7;" vertex="1" parent="1">
          <mxGeometry x="40" y="250" width="50" height="100" as="geometry" />
        </mxCell>
        <mxCell id="Jtc_E76_hGR1CpZQ2M6x-51" value="Proxmox Server" style="text;html=1;strokeColor=none;fillColor=none;align=center;verticalAlign=middle;whiteSpace=wrap;rounded=0;shadow=1;fontSize=12;strokeWidth=12;" vertex="1" parent="1">
          <mxGeometry x="590" y="605" width="60" height="30" as="geometry" />
        </mxCell>
        <mxCell id="Jtc_E76_hGR1CpZQ2M6x-56" value="" style="endArrow=none;html=1;strokeWidth=2;rounded=0;comic=0;entryX=1;entryY=0.5;entryDx=0;entryDy=0;entryPerimeter=0;exitX=0;exitY=1;exitDx=0;exitDy=0;exitPerimeter=0;" edge="1" parent="1" source="Jtc_E76_hGR1CpZQ2M6x-48" target="Jtc_E76_hGR1CpZQ2M6x-4">
          <mxGeometry width="100" relative="1" as="geometry">
            <mxPoint x="693.755" y="340" as="sourcePoint" />
            <mxPoint x="690.005" y="250" as="targetPoint" />
          </mxGeometry>
        </mxCell>
        <mxCell id="Jtc_E76_hGR1CpZQ2M6x-58" value="Internet" style="text;html=1;strokeColor=none;fillColor=none;align=center;verticalAlign=middle;whiteSpace=wrap;rounded=0;shadow=1;fontSize=12;" vertex="1" parent="1">
          <mxGeometry x="505" y="40" width="60" height="30" as="geometry" />
        </mxCell>
        <mxCell id="Jtc_E76_hGR1CpZQ2M6x-59" value="" style="sketch=0;aspect=fixed;html=1;points=[];align=center;image;fontSize=12;image=img/lib/mscae/Docker.svg;shadow=1;strokeWidth=12;" vertex="1" parent="1">
          <mxGeometry x="410" y="720" width="50" height="41" as="geometry" />
        </mxCell>
        <mxCell id="Jtc_E76_hGR1CpZQ2M6x-60" value="" style="endArrow=none;dashed=1;html=1;rounded=0;comic=0;fontSize=12;strokeWidth=2;exitX=0.68;exitY=0.024;exitDx=0;exitDy=0;exitPerimeter=0;entryX=0;entryY=0.917;entryDx=0;entryDy=0;entryPerimeter=0;" edge="1" parent="1" source="Jtc_E76_hGR1CpZQ2M6x-59" target="Jtc_E76_hGR1CpZQ2M6x-42">
          <mxGeometry width="50" height="50" relative="1" as="geometry">
            <mxPoint x="440" y="720" as="sourcePoint" />
            <mxPoint x="490" y="670" as="targetPoint" />
          </mxGeometry>
        </mxCell>
        <mxCell id="Jtc_E76_hGR1CpZQ2M6x-61" value="" style="sketch=0;aspect=fixed;html=1;points=[];align=center;image;fontSize=12;image=img/lib/mscae/Docker.svg;shadow=1;strokeWidth=12;" vertex="1" parent="1">
          <mxGeometry x="510" y="750" width="50" height="41" as="geometry" />
        </mxCell>
        <mxCell id="Jtc_E76_hGR1CpZQ2M6x-62" value="" style="sketch=0;aspect=fixed;html=1;points=[];align=center;image;fontSize=12;image=img/lib/mscae/Docker.svg;shadow=1;strokeWidth=12;" vertex="1" parent="1">
          <mxGeometry x="610" y="720" width="50" height="41" as="geometry" />
        </mxCell>
        <mxCell id="Jtc_E76_hGR1CpZQ2M6x-63" value="" style="endArrow=none;dashed=1;html=1;rounded=0;comic=0;fontSize=12;strokeWidth=2;entryX=0.5;entryY=1;entryDx=0;entryDy=0;entryPerimeter=0;" edge="1" parent="1" source="Jtc_E76_hGR1CpZQ2M6x-61" target="Jtc_E76_hGR1CpZQ2M6x-42">
          <mxGeometry width="50" height="50" relative="1" as="geometry">
            <mxPoint x="454" y="730.9839999999999" as="sourcePoint" />
            <mxPoint x="500" y="680" as="targetPoint" />
            <Array as="points" />
          </mxGeometry>
        </mxCell>
        <mxCell id="Jtc_E76_hGR1CpZQ2M6x-64" value="" style="endArrow=none;dashed=1;html=1;rounded=0;comic=0;fontSize=12;strokeWidth=2;entryX=0.991;entryY=0.925;entryDx=0;entryDy=0;entryPerimeter=0;" edge="1" parent="1" source="Jtc_E76_hGR1CpZQ2M6x-62" target="Jtc_E76_hGR1CpZQ2M6x-42">
          <mxGeometry width="50" height="50" relative="1" as="geometry">
            <mxPoint x="590" y="740" as="sourcePoint" />
            <mxPoint x="590" y="670" as="targetPoint" />
            <Array as="points" />
          </mxGeometry>
        </mxCell>
        <mxCell id="Jtc_E76_hGR1CpZQ2M6x-65" value="Pod 1" style="text;html=1;strokeColor=none;fillColor=none;align=center;verticalAlign=middle;whiteSpace=wrap;rounded=0;shadow=1;fontSize=12;" vertex="1" parent="1">
          <mxGeometry x="405" y="761" width="60" height="30" as="geometry" />
        </mxCell>
        <mxCell id="Jtc_E76_hGR1CpZQ2M6x-66" value="Pod 2" style="text;html=1;strokeColor=none;fillColor=none;align=center;verticalAlign=middle;whiteSpace=wrap;rounded=0;shadow=1;fontSize=12;" vertex="1" parent="1">
          <mxGeometry x="505" y="791" width="60" height="30" as="geometry" />
        </mxCell>
        <mxCell id="Jtc_E76_hGR1CpZQ2M6x-67" value="Pod 3" style="text;html=1;strokeColor=none;fillColor=none;align=center;verticalAlign=middle;whiteSpace=wrap;rounded=0;shadow=1;fontSize=12;" vertex="1" parent="1">
          <mxGeometry x="605" y="761" width="60" height="30" as="geometry" />
        </mxCell>
      </root>
    </mxGraphModel>
  </diagram>
</mxfile>
